<mxfile host="Electron" modified="2023-10-31T15:28:58.489Z" agent="Mozilla/5.0 (Windows NT 10.0; Win64; x64) AppleWebKit/537.36 (KHTML, like Gecko) draw.io/22.0.3 Chrome/114.0.5735.289 Electron/25.8.4 Safari/537.36" etag="8iDWrAVx40q0yLZpNCfT" version="22.0.3" type="device">
  <diagram name="Page-1" id="U61fHHjh8Ui2Hwplrzna">
    <mxGraphModel dx="1100" dy="958" grid="1" gridSize="10" guides="1" tooltips="1" connect="1" arrows="1" fold="1" page="1" pageScale="1" pageWidth="850" pageHeight="1100" math="0" shadow="0">
      <root>
        <mxCell id="0" />
        <mxCell id="1" parent="0" />
        <mxCell id="zYdSxDT9N8SGlTt6spzs-5" value="Backend API Container" style="rounded=0;whiteSpace=wrap;html=1;fillColor=#0050ef;fontColor=#ffffff;strokeColor=#001DBC;align=left;verticalAlign=top;" vertex="1" parent="1">
          <mxGeometry x="300" y="20" width="140" height="100" as="geometry" />
        </mxCell>
        <mxCell id="zYdSxDT9N8SGlTt6spzs-4" value="Web Server Container" style="rounded=0;whiteSpace=wrap;html=1;align=left;verticalAlign=top;fillColor=#0050ef;fontColor=#ffffff;strokeColor=#001DBC;" vertex="1" parent="1">
          <mxGeometry x="20" y="20" width="140" height="100" as="geometry" />
        </mxCell>
        <mxCell id="zYdSxDT9N8SGlTt6spzs-14" style="edgeStyle=orthogonalEdgeStyle;rounded=0;orthogonalLoop=1;jettySize=auto;html=1;exitX=1;exitY=0.5;exitDx=0;exitDy=0;entryX=0;entryY=0.5;entryDx=0;entryDy=0;" edge="1" parent="1" source="zYdSxDT9N8SGlTt6spzs-1" target="zYdSxDT9N8SGlTt6spzs-3">
          <mxGeometry relative="1" as="geometry" />
        </mxCell>
        <mxCell id="zYdSxDT9N8SGlTt6spzs-1" value="HTML/CSS/JS Frontend" style="rounded=0;whiteSpace=wrap;html=1;fillColor=#1ba1e2;fontColor=#ffffff;strokeColor=#006EAF;" vertex="1" parent="1">
          <mxGeometry x="30" y="50" width="120" height="60" as="geometry" />
        </mxCell>
        <mxCell id="zYdSxDT9N8SGlTt6spzs-13" style="edgeStyle=orthogonalEdgeStyle;rounded=0;orthogonalLoop=1;jettySize=auto;html=1;exitX=1;exitY=0.5;exitDx=0;exitDy=0;entryX=0;entryY=0.5;entryDx=0;entryDy=0;" edge="1" parent="1" source="zYdSxDT9N8SGlTt6spzs-3" target="zYdSxDT9N8SGlTt6spzs-6">
          <mxGeometry relative="1" as="geometry" />
        </mxCell>
        <mxCell id="zYdSxDT9N8SGlTt6spzs-3" value="REST API" style="rhombus;whiteSpace=wrap;html=1;fillColor=#76608a;fontColor=#ffffff;strokeColor=#432D57;" vertex="1" parent="1">
          <mxGeometry x="200" y="50" width="60" height="60" as="geometry" />
        </mxCell>
        <mxCell id="zYdSxDT9N8SGlTt6spzs-9" style="edgeStyle=orthogonalEdgeStyle;rounded=0;orthogonalLoop=1;jettySize=auto;html=1;exitX=1;exitY=0.5;exitDx=0;exitDy=0;entryX=0;entryY=0.5;entryDx=0;entryDy=0;" edge="1" parent="1" source="zYdSxDT9N8SGlTt6spzs-6" target="zYdSxDT9N8SGlTt6spzs-8">
          <mxGeometry relative="1" as="geometry" />
        </mxCell>
        <mxCell id="zYdSxDT9N8SGlTt6spzs-6" value="Scala/Play" style="rounded=0;whiteSpace=wrap;html=1;fillColor=#a20025;fontColor=#ffffff;strokeColor=#6F0000;" vertex="1" parent="1">
          <mxGeometry x="310" y="50" width="120" height="60" as="geometry" />
        </mxCell>
        <mxCell id="zYdSxDT9N8SGlTt6spzs-7" value="DB Container" style="rounded=0;whiteSpace=wrap;html=1;align=left;verticalAlign=top;fillColor=#0050ef;fontColor=#ffffff;strokeColor=#001DBC;" vertex="1" parent="1">
          <mxGeometry x="580" y="20" width="140" height="100" as="geometry" />
        </mxCell>
        <mxCell id="zYdSxDT9N8SGlTt6spzs-8" value="JDBC" style="rhombus;whiteSpace=wrap;html=1;fillColor=#76608a;fontColor=#ffffff;strokeColor=#432D57;" vertex="1" parent="1">
          <mxGeometry x="480" y="50" width="60" height="60" as="geometry" />
        </mxCell>
        <mxCell id="zYdSxDT9N8SGlTt6spzs-10" value="Postgres" style="shape=cylinder3;whiteSpace=wrap;html=1;boundedLbl=1;backgroundOutline=1;size=9.79998779296875;fillColor=#60a917;fontColor=#ffffff;strokeColor=#2D7600;" vertex="1" parent="1">
          <mxGeometry x="590" y="50" width="120" height="60" as="geometry" />
        </mxCell>
        <mxCell id="zYdSxDT9N8SGlTt6spzs-11" style="edgeStyle=orthogonalEdgeStyle;rounded=0;orthogonalLoop=1;jettySize=auto;html=1;exitX=1;exitY=0.5;exitDx=0;exitDy=0;entryX=0;entryY=0.5;entryDx=0;entryDy=0;entryPerimeter=0;" edge="1" parent="1" source="zYdSxDT9N8SGlTt6spzs-8" target="zYdSxDT9N8SGlTt6spzs-10">
          <mxGeometry relative="1" as="geometry" />
        </mxCell>
      </root>
    </mxGraphModel>
  </diagram>
</mxfile>
